<svg width="48" height="53" viewBox="0 0 48 53" fill="none" xmlns="http://www.w3.org/2000/svg">
<path d="M31.9024 19.7147C33.4063 18.2109 35.9775 19.276 35.9775 21.4027L35.9775 37.344C35.9775 38.7326 35.4311 40.0654 34.4565 41.0543L25.8166 49.8209C24.8864 50.7647 23.3655 50.7702 22.4284 49.8332L13.7942 41.1989C12.8619 40.2667 12.8619 38.7552 13.7942 37.823L31.9024 19.7147Z" fill="#2B85FF"/>
<path d="M16.0976 32.7945C14.5937 34.2983 12.0225 33.2333 12.0225 31.1066L12.0225 15.1653C12.0225 13.7767 12.5689 12.4439 13.5435 11.4549L22.1834 2.68841C23.1136 1.74458 24.6345 1.73904 25.5716 2.67608L34.2058 11.3103C35.1381 12.2426 35.1381 13.754 34.2058 14.6863L16.0976 32.7945Z" fill="#CBDDF6"/>
</svg>
